<?xml version="1.0" encoding="UTF-8"?>
<svg width="741px" height="231px" viewBox="0 0 741 231" version="1.1" xmlns="http://www.w3.org/2000/svg" xmlns:xlink="http://www.w3.org/1999/xlink">
    <!-- Generator: Sketch 42 (36781) - http://www.bohemiancoding.com/sketch -->
    <title>moo-logo</title>
    <desc>Created with Sketch.</desc>
    <defs>
        <filter x="-50%" y="-50%" width="200%" height="200%" filterUnits="objectBoundingBox" id="filter-1">
            <feOffset dx="0" dy="0" in="SourceAlpha" result="shadowOffsetOuter1"></feOffset>
            <feGaussianBlur stdDeviation="5" in="shadowOffsetOuter1" result="shadowBlurOuter1"></feGaussianBlur>
            <feColorMatrix values="0 0 0 0 1   0 0 0 0 0   0 0 0 0 0.345278533  0 0 0 1 0" type="matrix" in="shadowBlurOuter1" result="shadowMatrixOuter1"></feColorMatrix>
            <feMerge>
                <feMergeNode in="shadowMatrixOuter1"></feMergeNode>
                <feMergeNode in="SourceGraphic"></feMergeNode>
            </feMerge>
        </filter>
    </defs>
    <g id="Page-1" stroke="none" stroke-width="1" fill="none" fill-rule="evenodd">
        <g id="mängude-öö-logo-copy" filter="url(#filter-1)" transform="translate(10.000000, 9.000000)" fill="#F72782">
            <g id="Layer_1">
                <path d="M66.5175527,192.345972 C66.0407857,191.96094 65.4995379,191.620861 65.0774819,191.165468 C60.053843,185.732021 55.0673294,180.263394 50.0241509,174.845583 C49.0413075,173.790165 48.6915481,172.728884 49.0530313,171.315797 C49.858064,168.174952 50.5693066,165.008699 51.3254903,161.854172 C53.8382867,151.382083 56.3608529,140.911948 58.8638796,130.437904 C62.2403276,116.305079 65.5952821,102.166391 68.9717302,88.0355199 C72.5885157,72.8980934 76.2228869,57.7665304 79.8435804,42.6291039 C81.1410118,37.203475 82.4286735,31.777846 83.7085192,26.3502626 C83.8511585,25.7443747 83.9136853,25.118942 84.0485088,24.2785167 C83.298187,24.083069 82.7041822,23.7938064 82.1101775,23.7938064 C73.1512571,23.7762161 64.1923367,23.7938064 55.2353703,23.825078 C54.6081481,23.8270325 53.98288,24.0205257 53.4670337,24.1065227 C52.4177556,25.2538009 52.3259193,26.580891 52.028917,27.8278475 C48.6583308,41.9626271 45.2877446,56.0974068 41.9152044,70.230232 C39.0252931,82.3440821 36.1529675,94.4598868 33.2415626,106.565919 C29.204675,123.341197 25.1306622,140.108658 21.0879127,156.881982 C20.1773659,160.66585 19.3449777,164.465354 18.4461547,168.251176 C18.1843237,169.353501 17.8169786,170.428464 17.5219302,171.431111 C17.1682629,171.466291 17.0373474,171.501472 16.9162017,171.483882 C16.791148,171.464337 16.6524167,171.41743 16.5586264,171.337296 C16.263578,171.085168 15.9587598,170.838904 15.7066986,170.547687 C10.5443283,164.549396 5.38977388,158.547197 0.416938016,152.759989 C0.280160605,152.341731 0.227403604,152.222508 0.203956048,152.095467 C0.182462454,151.968426 0.162922824,151.831613 0.190278306,151.708481 C0.581070908,149.937724 0.940600102,148.15915 1.38219574,146.40012 C13.4186079,98.4685196 25.4628359,50.5369189 37.5148797,2.60922716 C37.606716,2.24764887 37.8294678,1.91734221 37.9936007,1.56749078 C39.3516049,0.793517774 40.8131693,1.11405205 42.2063449,1.11405205 C57.7911539,1.08864384 73.3720549,1.09646175 88.9549099,1.09646175 C113.105893,1.09646175 137.256876,1.09646175 161.407858,1.10232518 C162.949535,1.10232518 164.493166,1.15900502 165.806229,1.18636771 C166.828152,2.2105138 166.406096,3.09784648 166.197022,3.94999858 C164.739365,9.87206472 163.273893,15.7902219 161.798651,21.7083791 C158.218991,36.0581513 154.629561,50.4040145 151.051854,64.7537866 C148.070107,76.7093241 145.096175,88.6668161 142.124197,100.624308 C137.99352,117.241274 133.86675,133.856285 129.734118,150.471297 C127.166611,160.794846 124.591287,171.11644 122.00424,181.43608 C121.818614,182.178781 121.519657,182.890211 121.25978,183.656366 C120.069817,183.967128 118.963874,184.2603 117.900918,184.537835 C117.187721,185.907924 116.509696,187.158789 116.947384,188.814232 C117.824713,189.179719 118.746984,189.562797 119.866605,190.029917 C117.922412,197.787237 116.005574,205.433152 114.127815,212.916846 C113.084399,213.413283 112.660389,212.817167 112.265689,212.361774 C107.417906,206.771969 102.615065,201.14112 97.7301578,195.580632 C96.7590382,194.476352 96.5206547,193.350573 96.7707619,192.001984 C96.9348948,191.114651 97.0775341,190.22341 97.2651146,189.132812 C96.3369822,188.730189 95.4420671,188.343203 94.5725536,187.967943 C94.6370343,185.388033 94.6370343,185.384124 96.5773196,185.00691 C97.0755802,184.911141 97.5777487,184.838825 98.3065769,184.717647 C98.7559884,183.24788 99.2796505,181.803522 99.6372257,180.318119 C103.480671,164.29336 107.298715,148.264692 111.12262,132.236024 C114.22356,119.23875 117.303005,106.235612 120.425438,93.2422474 C124.093027,77.9816888 127.805556,62.7309027 131.479007,47.4703441 C133.087118,40.7879863 134.658105,34.0939016 136.207597,27.395908 C136.432303,26.4264873 136.440119,25.4042956 136.569081,24.2277003 C135.726922,24.0537518 135.123148,23.8270325 134.515465,23.8192146 C125.832054,23.6863101 117.148642,23.6550385 108.344085,23.8426683 C107.97674,24.6772301 107.566408,25.33198 107.392505,26.0473187 C102.296569,46.9680434 97.2162655,67.8946316 92.1535474,88.8251288 C88.4332018,104.208819 84.7421657,119.598373 81.0394058,134.987928 C76.7289634,152.896803 72.4321987,170.809587 68.082677,188.710644 C67.7876286,189.916557 67.8071683,191.325735 66.5175527,192.345972" id="Shape"></path>
                <path d="M470.251252,191.953122 C452.870751,177.110822 436.119426,162.804048 419.225462,148.378051 C422.199393,135.357324 425.378491,122.535953 428.438397,109.687219 C431.46704,96.9694356 434.591427,84.2751057 437.596622,71.2797863 C436.3285,70.9397072 435.388644,70.6895341 434.210404,70.3729088 C435.144398,69.2275851 436.475047,69.9800589 437.688458,69.3077187 C437.90144,68.891415 438.386023,68.2562099 438.565787,67.5447802 C439.456795,64.0247666 440.267689,60.4852083 441.103985,56.9515133 C441.907064,53.5448595 442.694511,50.1362511 443.511268,46.7315517 C443.659769,46.1139369 443.907922,45.5197758 444.111134,44.9119333 C445.61764,43.997238 447.208166,44.2825916 448.726395,44.2767282 C459.109755,44.25132 469.495068,44.2767282 479.878427,44.2571834 C481.410334,44.2532745 482.942241,44.1047342 484.569893,44.0187372 C484.941146,42.9828643 485.324122,42.1717562 485.52538,41.3176496 C488.536437,28.7054078 491.506461,16.081439 494.540966,3.4750606 C494.800843,2.4000981 494.630848,1.08082593 495.787594,0.338124569 C498.269127,1.72775791 510.811616,12.4597926 513.269701,15.3406921 C509.008108,33.0814824 504.615599,50.9375868 500.414579,68.1233055 C498.816237,69.8295641 496.410908,68.2327562 495.740699,70.8068028 C496.975604,71.1038833 498.056145,71.3657833 499.183582,71.6374556 C499.183582,72.3117503 499.287142,72.847277 499.169904,73.3300329 C489.599393,112.632616 480.013251,151.933246 470.251252,191.953122 M457.222226,71.4693706 C457.062001,72.6518293 457.015106,73.4179844 456.847065,74.1606858 C456.450411,75.9294877 455.985368,77.6826538 455.565266,79.4455923 C453.251773,89.1476175 450.930465,98.8476882 448.632605,108.551668 C446.483246,117.62826 444.4394,126.732216 442.176711,135.781445 C441.600292,138.093592 441.90511,139.666946 443.80827,141.189484 C447.956534,144.510141 451.954342,148.016473 456.040079,151.415309 C456.598912,151.880475 457.304293,152.169737 457.96864,152.554769 C459.307105,151.368402 459.285611,149.838046 459.611923,148.507047 C461.126244,142.346534 462.51942,136.152796 464.010294,129.984466 C468.488777,111.475566 472.99657,92.9725295 477.475053,74.4616753 C477.742746,73.3593501 478.198019,72.2218443 477.562981,71.1488363 C476.945529,70.5136312 475.743842,71.0745661 475.280752,69.9214246 C476.457038,69.710341 477.443789,69.5324836 478.407093,69.3585351 C479.31764,67.0698422 480.07187,64.9375075 479.772913,62.6292698 C476.023258,61.929567 462.769527,61.9842923 459.715483,62.699631 C459.125386,64.7010157 458.511842,66.782534 457.872896,68.9500493 C456.798216,69.0497277 455.907209,69.1142254 455.02011,69.2217217 C454.336223,69.3057642 453.669922,69.6047992 453.794975,70.3826812 C453.845778,70.7032155 454.48277,71.0354766 454.912642,71.1664266 C455.510555,71.3501474 456.161224,71.344284 457.222226,71.4693706" id="Shape"></path>
                <path d="M321.982584,138.169817 C320.466309,137.0929 319.127845,137.3548 317.861676,137.345027 C313.187797,137.309847 308.511963,137.329391 303.83613,137.327437 C302.927537,137.327437 302.015036,137.278575 301.108398,137.317664 C299.668327,137.384117 298.66399,136.766502 297.872635,135.580134 C296.432564,133.418482 294.920197,131.307647 293.435185,129.177267 C291.059166,125.770613 288.763259,122.301416 286.268049,118.982713 C285.037052,117.346816 284.904182,115.781279 285.380949,113.897163 C287.198135,106.730095 288.944978,99.5454366 290.691821,92.3627326 C294.187461,77.9914612 297.663561,63.6162809 301.157247,49.2450094 C301.430802,48.125094 301.790331,47.0266777 302.163538,45.7328138 C303.09167,45.6350899 303.963138,45.4611414 304.834605,45.459187 C323.664947,45.4415967 342.495288,45.4396422 361.327584,45.4474601 C362.220545,45.4474601 363.113506,45.5627743 364.252666,45.6429078 C364.133475,46.5263316 364.098303,47.2573061 363.932216,47.9589634 C360.549906,62.2227386 357.167596,76.4845592 353.757931,90.7405165 C349.654609,107.900827 345.525885,125.05332 341.418655,142.211676 C339.515495,150.15858 337.557624,158.091803 335.795149,166.071934 C335.353553,168.06941 334.515303,169.206916 332.625821,170.029751 C323.821264,173.864435 315.085095,177.853523 306.315709,181.770296 C287.004693,190.399313 267.689768,199.020512 248.374844,207.637802 C246.852707,208.316006 245.303214,208.929712 243.462581,209.70173 C243.41764,208.761627 243.269139,208.142058 243.380514,207.575259 C244.404391,202.35485 245.520104,197.153986 246.508809,191.927714 C246.864431,190.047507 247.960604,189.105449 249.621472,188.343203 C265.655693,180.974823 281.662558,173.539992 297.675285,166.124705 C303.3281,163.505705 308.949651,160.820254 314.641545,158.295069 C316.736194,157.366692 317.847999,156.041557 318.332582,153.752864 C319.243128,149.441287 320.501481,145.20398 321.580068,140.923675 C321.79305,140.06566 321.839945,139.164645 321.982584,138.169817 M339.093439,66.3251864 C338.583454,66.057423 338.255188,65.7388432 337.921061,65.7349342 C331.564819,65.6606641 325.208577,65.6078932 318.852336,65.5981208 C318.103968,65.5961663 317.357554,65.8600208 316.534936,66.01247 C316.1969,66.9291198 315.802199,67.7480458 315.591171,68.6138793 C313.148718,78.5582596 310.731665,88.5085034 308.314613,98.4587473 C307.427514,102.11362 306.591218,105.780219 305.676763,109.427274 C305.43838,110.373241 305.485275,111.213666 305.963996,112.044319 C307.255565,114.280241 308.394726,116.61975 310.118121,118.482367 C314.602466,119.027666 323.69621,118.908443 326.414173,118.284965 C327.457589,115.849686 337.483373,75.9588049 338.989879,68.166304 C339.10907,67.560416 339.064129,66.9252109 339.093439,66.3251864" id="Shape"></path>
                <path d="M628.453867,149.564419 C631.455154,136.230975 634.757351,123.296244 637.840705,110.308743 C640.916243,97.3622855 644.325908,84.4940071 647.084904,71.2328788 C646.115738,70.9201624 645.224731,70.6328543 643.602942,70.1090544 C645.310706,69.7904746 646.262286,69.6126171 647.41317,69.3976246 C647.633968,68.9090053 647.989589,68.3558883 648.140044,67.7519548 C649.298744,63.0983444 650.412503,58.4310526 651.553617,53.7715788 C652.196471,51.1408524 652.862773,48.5140349 653.564245,45.7015421 C654.580306,45.6057728 655.447866,45.4494146 656.317379,45.4494146 C675.530697,45.4376877 694.742062,45.4396422 713.95538,45.4494146 C714.71938,45.4494146 715.481425,45.545184 716.454499,45.6116362 C716.503348,46.3465196 716.69679,46.9856337 716.560013,47.5446142 C714.90696,54.3481496 713.207012,61.1399582 711.510972,67.9317667 C711.450399,68.1741219 711.268681,68.3852054 711.151443,68.5982434 C710.053316,69.882335 707.587415,68.1917122 706.891804,70.7286237 C708.017286,71.04134 709.091966,71.3403751 710.211587,71.6511369 C710.26239,72.0537593 710.420661,72.4524726 710.338595,72.7925517 C703.251571,102.162482 696.145007,131.526548 689.04626,160.873025 C687.942271,161.334281 687.014138,161.723222 685.931643,162.176661 C685.574067,163.550658 685.20086,164.914884 684.868687,166.290836 C684.565822,167.54561 685.120748,168.260949 686.345883,168.558029 C686.529555,168.602982 686.652655,168.896154 686.80311,169.074011 C685.609239,170.934674 685.632686,170.934674 685.63464,173.968022 C685.63464,174.740041 685.505679,175.527695 685.32396,176.278214 C684.214109,180.814556 683.080811,185.34308 681.933834,189.869649 C681.812689,190.348496 681.558673,190.796072 681.259717,191.517274 C680.200669,190.774572 679.237365,190.168684 678.35222,189.467027 C672.447344,184.795826 666.571777,180.089445 660.661039,175.426062 C659.14281,174.227968 657.716417,172.912605 655.819119,172.218765 C655.055119,171.939275 654.422035,171.120349 653.886649,170.42651 C652.563816,168.720251 651.092482,167.426387 648.743819,167.406842 C648.048208,167.399024 647.286162,166.931904 646.67848,166.499965 C645.515872,165.675175 644.4451,164.723345 643.331341,163.832103 C642.682625,163.310258 642.446196,162.788412 642.629868,161.848309 C642.727566,161.349917 641.965521,160.5349 641.414503,160.081461 C638.303794,157.530868 635.130558,155.054546 631.992494,152.535225 C630.886551,151.651801 629.819687,150.715606 628.453867,149.564419 M666.536606,73.6896567 C667.66795,75.8962616 667.701168,75.906034 667.296697,77.581021 C664.457589,89.2981123 661.596987,101.00934 658.755925,112.726431 C656.680816,121.292905 654.681912,129.878924 652.511059,138.421944 C652.022569,140.349059 652.327387,141.578425 653.978485,142.715931 C658.892702,146.101085 663.726807,149.5996 668.605853,153.033616 C668.996645,153.307243 669.500768,153.422557 670.174885,153.704002 C670.503151,153.002345 670.854864,152.472681 671.003365,151.892202 C671.456685,150.135126 671.810352,148.352643 672.240224,146.589705 C673.92454,139.663037 675.624488,132.738324 677.31662,125.811657 C679.344833,117.501219 681.382817,109.190782 683.391491,100.874481 C685.615101,91.6728022 687.819171,82.4672142 690.001748,73.2577173 C690.167834,72.5580144 690.1014,71.8035862 690.138525,71.1468818 C689.071661,70.8243931 688.241227,70.5761744 687.416654,70.3045021 C687.389299,70.2966842 687.436194,70.0641014 687.451826,69.9057887 C688.565585,69.7201134 689.687159,69.5344381 690.931834,69.3292179 C691.32458,67.5310988 692.32501,65.9460178 691.688018,64.1439897 C688.122035,63.5498286 674.159015,63.5576465 670.87245,64.1400808 C670.245228,65.7271163 669.592604,67.3766951 668.984921,68.9168232 C667.68749,69.1064075 666.649936,69.1748142 665.669046,69.4464866 C665.354458,69.5344381 665.188371,70.1598708 665.014469,70.439361 C665.90743,71.7605877 667.529219,70.6778073 668.187704,71.8270399 C668.480799,73.2870344 666.825792,72.847277 666.536606,73.6896567" id="Shape"></path>
                <path d="M617.378804,160.87107 C616.132176,161.396825 615.19232,161.791629 614.244648,162.192297 C613.916382,163.398209 613.576392,164.512261 613.316515,165.643904 C612.878828,167.551473 612.900321,167.555382 615.047726,168.878564 C614.764402,172.429849 610.790041,188.454608 609.38905,191.49382 C608.234257,190.637759 607.083373,189.836423 605.9872,188.964726 C597.964228,182.579449 589.947118,176.182445 581.941731,169.775669 C580.41764,168.55412 578.985385,167.230939 576.798901,167.39707 C576.349489,167.430296 575.808241,167.105853 575.411587,166.810727 C574.164958,165.880395 572.957409,164.895339 571.753768,163.906373 C571.460674,163.664018 570.991722,163.277032 571.03471,163.036631 C571.540786,160.292545 569.12178,159.659294 567.669985,158.437746 C564.199747,155.521666 560.606409,152.752172 557.218237,150.049129 C556.710207,148.323326 557.257317,146.949328 557.587536,145.592921 C560.942491,131.721996 564.342386,117.862798 567.718834,103.99969 C568.701678,99.9656492 569.561422,95.902291 570.643917,91.8956126 C571.14804,90.0329957 571.153901,88.3560542 570.071406,86.5442538 C569.389473,86.2608546 568.570762,85.9246845 567.802855,85.6061047 C567.691479,85.2972973 567.499991,85.0412608 567.53907,84.8301772 C567.734466,83.8197125 567.992389,82.8209746 568.269852,81.6443793 C569.825207,81.4626129 571.323896,81.282801 572.969133,81.0873532 C574.243117,77.9386903 574.927004,74.702076 575.3686,71.1859714 C574.40725,70.9025721 573.584631,70.660217 572.511906,70.3455461 C573.420499,69.2217217 574.827352,70.0484656 576.005592,69.0106381 C578.334715,61.6344409 579.626285,53.5604953 581.836217,46.061166 C582.258273,45.7562675 582.352063,45.6644071 582.463439,45.6155451 C582.578723,45.5647287 582.715501,45.5275937 582.842508,45.5275937 C602.055826,45.4943676 621.267191,45.4611414 640.480509,45.4337788 C641.518063,45.4337788 642.559526,45.4513691 643.595126,45.4806862 C643.847187,45.4885041 644.099249,45.5745011 644.345448,45.6448623 C644.468548,45.6800429 644.576015,45.7601765 644.886696,45.9223981 C644.886696,46.446198 645.019565,47.1068113 644.865202,47.6892455 C643.018707,54.70191 641.647025,61.8377065 639.630535,68.4907472 C638.21782,69.7279313 635.912143,68.3461159 635.120788,70.8028938 C636.455345,71.1195191 637.533933,71.3755556 638.532408,71.6100929 C638.620336,72.0674406 638.761022,72.3410674 638.706311,72.5697413 C631.627103,101.94358 624.524447,131.311556 617.378804,160.87107 M620.425033,64.2983934 C617.040769,63.5889182 603.277053,63.4970577 599.218672,64.0697196 C598.612944,65.6430738 597.975952,67.2926526 597.385855,68.8269173 C594.064118,69.3233545 594.064118,69.3233545 593.302072,70.7794401 C594.423647,71.0745661 595.496373,71.3560109 596.629671,71.6550459 C596.733231,74.7196663 595.515912,77.3034852 594.857427,80.0495258 C593.137939,80.3407429 591.633388,80.594825 590.113205,80.8508615 C589.491844,82.6919791 588.710259,84.3239676 588.933011,86.3761687 C589.806432,86.6439321 590.638821,86.8980142 591.596262,87.1911858 C591.93039,87.9280237 592.297735,88.7410862 592.670942,89.5658757 C590.466872,98.6659219 588.274525,107.736651 586.072409,116.803471 C584.298211,124.109307 582.55723,131.424915 580.699011,138.711207 C580.243737,140.499553 580.661885,141.607742 582.174253,142.651433 C586.982956,145.962317 591.70373,149.396334 596.483124,152.750217 C597.059543,153.154794 597.792279,153.340469 598.489844,153.641459 C599.599695,152.099376 599.652452,150.492796 600.011981,149.021074 C603.955078,132.904455 607.851281,116.776108 611.751391,100.647762 C613.976955,91.4480373 616.190795,82.2463583 618.389003,73.0407703 C618.529689,72.4524726 618.498425,71.8231309 618.527735,71.4361444 C617.621096,70.4374066 616.349066,71.0296132 615.264616,69.9663775 C616.808247,69.7357492 617.910282,69.5715731 619.262425,69.370262 C619.633678,67.7480458 619.999069,66.1453745 620.425033,64.2983934" id="Shape"></path>
                <path d="M138.939238,147.830798 C138.909928,147.187775 138.800506,146.779289 138.886481,146.42162 C143.585762,127.009751 148.29872,107.597883 153.031219,88.1938326 C153.181674,87.5742633 153.521664,86.999647 153.765909,86.4230762 C155.17667,85.7311912 156.626511,86.0243628 158.027502,86.0184994 C168.412816,85.9911367 178.800083,86.0106815 189.18735,85.9970001 C190.59225,85.9970001 191.995195,85.9012308 193.509517,85.8445509 C193.941342,84.5487325 194.365352,83.4796334 194.650631,82.3753538 C195.719449,78.2299075 196.770681,74.0805522 197.765248,69.9175156 C198.058342,68.6881494 198.583959,67.4353295 198.042711,66.1082394 C196.739417,65.2111343 195.268083,65.5609858 193.878816,65.5570768 C183.751425,65.5258052 173.625989,65.5531678 163.498599,65.5297141 C162.097607,65.5258052 160.637997,65.8248402 159.170571,64.9883239 C159.170571,64.4078442 159.088504,63.7648211 159.184248,63.1472063 C159.739174,59.5724674 162.613453,48.3264051 163.651008,45.6409534 C168.451895,45.2207407 173.366112,45.5080489 178.268605,45.4572325 C183.331323,45.4064161 188.395995,45.4474601 193.458714,45.4474601 C198.39247,45.4474601 203.326227,45.4318243 208.259983,45.4494146 C213.1742,45.4689594 218.092325,45.3536452 223.282051,45.5393205 C223.172629,46.6670539 223.190215,47.5446142 222.992864,48.3694036 C220.312027,59.5998301 217.597973,70.8185296 214.901504,82.0430926 C210.903695,98.6913301 206.929335,115.345431 202.915895,131.991714 C198.718782,149.390471 194.486498,166.783364 190.273754,184.178212 C189.789171,186.179596 189.318266,188.18489 188.872762,190.063143 C187.522574,190.604533 186.963741,189.7172 186.330656,189.167992 C180.34176,183.988627 174.374357,178.783854 168.403046,173.58299 C159.297578,165.65563 150.194065,157.728271 141.092505,149.798956 C140.40471,149.20675 139.750132,148.575454 138.939238,147.830798 M177.342427,152.605586 C179.007203,148.276419 189.582051,104.802981 189.793079,101.542912 C189.066205,101.411962 188.323699,101.163744 187.579239,101.15788 C182.64939,101.126609 177.719542,101.114882 172.789693,101.165698 C170.230001,101.191106 170.188968,101.255604 169.514851,104.003599 C167.228714,113.316684 164.958209,122.635631 162.699428,131.954579 C162.156226,134.200273 161.677505,136.461603 161.130396,138.883201 C166.073922,143.255366 170.917796,147.553262 175.785118,151.823795 C176.150509,152.144329 176.678079,152.279188 177.342427,152.605586" id="Shape"></path>
                <path d="M507.7224,71.1449273 C506.223711,70.8224386 505.381553,70.6426267 504.551118,70.4628148 C504.627323,69.8842895 504.898924,69.8080649 507.657919,69.4425776 C508.546973,68.5943345 508.713059,67.4353295 508.986614,66.2978237 C510.47358,60.1158121 511.991809,53.9396639 513.506131,47.7654702 C513.656586,47.1478553 513.867614,46.5478308 514.102089,45.7601765 C514.891491,45.6546347 515.632043,45.4670049 516.372594,45.4670049 C535.202936,45.4533235 554.033278,45.4572325 572.863619,45.4670049 C573.369695,45.4670049 573.877726,45.5686377 574.620232,45.6487713 C574.669081,46.3132935 574.868385,46.9445897 574.735516,47.4996612 C573.211424,53.9377094 571.6463,60.3659852 570.059682,66.7923064 C569.879918,67.5213265 569.498895,68.2014846 569.299591,68.6861949 C567.900553,69.6751604 565.782457,68.3363435 565.110294,70.7325326 C566.235777,71.0491579 567.308502,71.3540564 568.512143,71.692181 C568.512143,72.2218443 568.605934,72.7436897 568.496512,73.2186277 C567.980665,75.4780034 567.408154,77.7256523 566.8884,79.8443057 C562.765538,81.0424003 562.759676,81.0424003 562.038664,84.980672 C561.972229,85.3500682 562.030848,85.7390091 562.030848,86.3155799 C562.798756,86.6067971 563.615512,86.91365 564.647205,87.302591 C564.77812,90.5040247 563.558847,93.5256466 562.863236,96.6274021 C562.185211,99.6470694 561.380178,102.641329 560.686522,105.416686 C559.236681,106.390016 557.898216,106.149615 556.626186,106.15157 C547.147512,106.167206 537.666883,106.139843 528.188209,106.139843 C525.470246,106.139843 522.754238,106.18675 520.411436,106.20825 C518.940102,107.181579 518.826772,108.389446 518.555171,109.515225 C516.540635,117.839344 514.531961,126.163463 512.523287,134.487581 C512.155942,136.000347 511.970316,137.585428 511.399759,139.016105 C510.610358,140.995991 511.370449,142.194085 512.892586,143.310092 C514.987235,144.844356 517.015448,146.470482 519.074925,148.051654 C521.650249,150.025676 524.221664,152.005561 526.816527,153.958084 C527.418347,154.411523 528.10028,154.757465 528.897497,155.246085 C530.63457,152.670083 530.679512,149.742277 531.445465,147.064643 C532.264176,144.197424 532.895306,141.275481 533.598732,138.373082 C534.270896,135.601633 534.931335,132.826276 535.603498,130.021601 C537.549646,128.782462 539.669695,129.368805 541.692047,129.304308 C543.896117,129.233946 546.108004,129.259355 548.312074,129.31408 C550.348103,129.362942 552.442752,128.889958 554.422116,129.812472 C554.459241,130.279592 554.590157,130.688078 554.506137,131.043792 C549.707203,150.838738 544.890685,170.629775 540.064396,190.418858 C539.951066,190.887932 539.718545,191.32769 539.470391,191.96094 C538.876386,191.644315 538.385942,191.47623 538.006873,191.167422 C521.560366,177.669802 505.057195,164.242543 488.563793,150.604201 C490.185582,143.865163 491.756568,137.313756 493.337325,130.766257 C494.951298,124.081944 496.571133,117.399587 498.187061,110.717229 C499.773679,104.158003 501.356389,97.5987773 502.950823,91.0395515 C504.545256,84.5155064 506.186585,78.0051426 507.7224,71.1449273 M545.771922,81.0834443 C547.518765,76.7718674 548.058059,74.4636297 548.122539,71.0589303 C547.667266,70.9533886 547.178775,70.8595736 546.702008,70.7247147 C546.279952,70.6074461 545.592157,70.9045266 545.590203,69.9448783 C546.668791,69.7455216 547.759102,69.5403015 548.972513,69.3155366 C549.363306,67.4118757 550.53373,65.7329798 549.748237,63.6436435 C546.485118,62.9146235 543.245448,63.2527481 540.038994,63.30161 C536.725073,63.3524264 533.350579,62.6937676 529.997579,63.7706846 C529.399666,65.537532 528.829109,67.220337 528.256598,68.9090053 C527.05491,69.067318 526.031034,69.1513605 525.034513,69.366353 C524.760958,69.4249873 524.415106,69.8569268 524.387751,70.144235 C524.360395,70.4295886 524.626134,70.9162535 524.882103,71.0178863 C525.675412,71.3384206 526.525386,71.5143235 527.390992,71.7586332 C527.390992,72.4837443 527.467196,73.0055897 527.377314,73.4961635 C527.097897,75.0226102 526.781355,76.5431936 526.435504,78.0540045 C525.685182,81.3297084 524.876242,84.591731 524.164999,87.8772073 C524.016498,88.5632288 524.196262,89.321566 524.227526,90.1424465 C524.940722,90.267533 525.435075,90.4278001 525.929428,90.4297546 C531.10743,90.4532083 536.283478,90.4532083 541.46148,90.4512539 C541.84641,90.4512539 542.28996,90.4981613 542.606502,90.3359397 C543.141888,90.0564495 543.808189,89.7241883 544.038757,89.235569 C544.396332,88.4772318 544.433457,87.5664454 544.59759,86.7729276 C543.477969,86.2159016 542.588916,85.7741897 541.512283,85.238663 C541.938247,83.8939826 542.319269,82.7037059 542.686614,81.5505643 C543.808189,81.3805248 544.693334,81.2476204 545.771922,81.0834443" id="Shape"></path>
                <path d="M400.783959,191.181104 C398.056226,189.558888 351.717994,151.229634 348.7382,148.075107 C350.389299,139.637629 352.673481,131.131744 354.662616,122.56527 C356.655658,113.977297 358.740537,105.408868 360.782428,96.8326222 C362.796964,88.3795079 364.8115,79.9283482 366.820174,71.475234 C368.856203,62.916578 370.739823,54.3188325 373.065039,45.631181 C376.449303,45.2950109 379.675296,45.4826407 382.887611,45.4709138 C385.982689,45.4611414 389.085582,45.3536452 392.006757,45.586228 C393.071667,46.8800919 392.561682,48.0469149 392.325253,49.1336042 C391.664813,52.1747709 390.904722,55.1924838 390.179801,58.2199691 C386.553246,73.3534867 382.922783,88.4850497 379.294274,103.618567 C376.662285,114.591003 374.026389,125.559529 371.402217,136.533919 C371.193143,137.403661 371.054411,138.290994 370.847291,139.336639 C376.101498,144.21306 381.461218,148.903806 386.858064,153.549598 C387.219547,153.858406 387.749071,153.971765 388.413419,154.272755 C389.943372,150.641336 390.431863,146.92392 391.309192,143.319864 C392.166982,139.792033 392.940751,136.244656 393.796587,132.716825 C394.683686,129.059998 395.64699,125.42467 396.528227,121.767843 C397.409465,118.112971 398.224267,114.442462 399.080103,110.783681 C399.937893,107.120991 400.797636,103.4583 401.684736,99.8034276 C402.538617,96.2736417 403.451118,92.7594915 404.297184,89.2277511 C405.17256,85.5689696 405.989316,81.8965068 406.851014,78.2357709 C407.712712,74.5769894 408.591995,70.9221169 409.473232,67.2652899 C410.32516,63.735504 411.169272,60.205718 412.056371,56.6857044 C412.970826,53.0542857 413.558969,49.3368699 414.74307,45.8735361 C418.336408,45.2989198 432.846538,45.328237 435.89472,45.889172 C435.949431,46.2507503 436.127242,46.6553271 436.043221,46.9993151 C424.477714,94.9035531 412.896575,142.801928 401.295897,190.700302 C401.254864,190.887932 400.961769,191.020837 400.783959,191.181104" id="Shape"></path>
                <path d="M262.126836,176.48148 C258.019605,178.402731 254.146851,180.220395 250.26628,182.018514 C249.44757,182.397683 248.595642,182.702581 247.5151,183.142339 C246.518579,182.430909 245.461485,181.719479 244.451286,180.949415 C243.529016,180.245803 242.655594,179.477694 241.602408,178.607951 C241.71183,177.617031 241.7216,176.588976 241.954121,175.613692 C245.627572,160.218275 249.342056,144.83263 253.021368,129.439167 C256.307934,115.687464 259.55542,101.927944 262.83417,88.1742878 C264.399295,81.6131076 265.995682,75.0597453 267.584254,68.5044285 C267.918382,67.1284765 268.453768,65.7759783 268.033666,64.3453009 C265.237545,63.6710062 251.753246,63.5478742 247.362691,64.1596255 C246.24307,65.5844395 246.06526,67.4255571 245.649066,69.1611329 C242.991676,80.2625638 240.367504,91.3718127 237.737469,102.481061 C234.151947,117.630215 230.568379,132.777414 226.990673,147.926567 C226.066448,151.841385 225.175441,155.762067 224.231677,159.672976 C223.934675,160.902342 223.510665,162.098482 223.072977,163.540886 C222.410583,163.173444 221.931863,163.00145 221.570379,162.694597 C216.531109,158.42211 211.505516,154.132032 206.591299,149.943588 C206.591299,149.136389 206.489693,148.596953 206.606931,148.114197 C214.735417,114.452235 222.881489,80.7941816 231.041238,47.1400374 C231.16043,46.6514181 231.48088,46.2136152 231.688,45.7914481 C234.955026,45.3555997 289.249796,45.3419183 292.856812,45.7719033 C293.636443,46.8898643 292.942786,48.0371425 292.706357,49.0827878 C291.397201,54.9012667 289.961039,60.6923829 288.573725,66.4932714 C285.79519,78.097003 283.026424,89.7046435 280.240073,101.306421 C277.424412,113.037193 274.581396,124.762102 271.767689,136.492875 C268.922719,148.352643 266.097288,160.218275 263.25818,172.078043 C262.926006,173.457904 262.5528,174.831901 262.126836,176.48148" id="Shape"></path>
                <path d="M644.249704,35.2509522 C638.733666,30.8142887 633.508769,26.6121626 628.270194,22.3983096 C628.221345,21.7924216 628.047442,21.2568949 628.158818,20.7897748 C629.682909,14.3869072 631.24608,7.99381206 632.871777,1.30559082 C636.377187,3.06266589 638.74539,5.80479751 641.478984,8.04071951 C644.263381,10.3176855 647.147431,12.5047456 649.498048,15.1178817 C648.904044,19.3297803 645.754255,31.5628535 644.249704,35.2509522" id="Shape"></path>
                <path d="M600.994825,1.52449228 C603.724511,3.18384348 614.359931,12.1275315 617.124789,15.0572929 C616.905945,18.6320319 613.351687,32.4345504 612.040577,34.7994679 C609.35974,33.3062473 598.851327,24.946948 595.797283,21.8276022 C596.813344,15.4931414 598.853281,9.20558797 600.256226,2.77926669 C600.353925,2.32973691 600.740809,1.94275041 600.994825,1.52449228" id="Shape"></path>
                <path d="M672.611477,1.60071689 C672.853768,1.62807957 673.162494,1.57139973 673.326627,1.70039523 C674.751066,2.82031071 676.167689,3.9480441 677.547187,5.12073046 C681.384771,8.38275304 685.202814,11.6682293 689.042352,14.9576146 C688.420991,19.0131549 687.354128,22.7364342 686.248185,26.4343052 C685.941412,27.4604057 684.640073,28.2050616 684.38215,29.2272532 C684.126181,30.233809 684.77685,31.4358125 684.722139,32.5361832 C684.68306,33.3355644 684.139858,34.1075829 683.708033,35.1708186 C682.420371,34.189671 681.398448,33.4215614 680.390203,32.637816 C679.776659,32.1609236 679.223688,31.5902162 678.567156,31.1856394 C677.267771,30.3843037 675.503342,29.9660456 674.688539,28.8402667 C673.678341,27.4467244 672.51964,26.3326723 671.241749,25.2655277 C670.053739,24.2746078 668.871592,23.2778244 667.79105,22.3729014 C667.753925,19.4235952 671.194854,4.7474253 672.611477,1.60071689" id="Shape"></path>
                <path d="M224.769017,34.9108731 C221.66417,33.026757 210.903695,24.3742861 208.386991,21.7474687 C209.817292,15.0729288 211.464483,8.32411872 213.330517,1.50299303 C213.895213,1.66912359 214.315315,1.67303255 214.565422,1.88216162 C219.239302,5.78916169 223.881918,9.73525131 228.561659,13.6383424 C229.698865,14.5862639 230.023223,15.6709988 229.657832,17.0860403 C228.231439,22.6035297 226.848033,28.1347004 225.429456,33.6560987 C225.335666,34.0196315 225.075789,34.3401657 224.769017,34.9108731" id="Shape"></path>
                <path d="M181.068634,1.4365408 C183.870617,3.01575844 194.013639,11.4727816 197.487785,15.0142944 C197.360778,17.5961589 194.552933,29.242889 192.696668,34.7994679 C192.147604,34.5922933 191.510612,34.5082508 191.080741,34.1662173 C186.619843,30.62275 182.203887,27.0226028 177.746897,23.4732721 C176.646816,22.5976663 175.972699,21.6556082 176.353721,20.1643421 C177.182202,16.904274 177.950109,13.62857 178.76882,10.3665475 C179.489832,7.48760244 180.246016,4.6184298 181.068634,1.4365408" id="Shape"></path>
                <path d="M704.746352,1.46585796 C707.431098,2.93953382 716.153588,10.1769632 720.448399,14.4689953 C720.753217,16.5817852 720.637934,18.7258468 720.026343,20.90118 C719.008328,24.5189174 718.17594,28.1894258 717.236084,31.8286624 C716.984023,32.8019921 716.62254,33.7499136 716.360709,34.5532038 C715.98164,34.6782903 715.862448,34.746697 715.74521,34.746697 C715.622111,34.746697 715.489241,34.6919717 715.375911,34.6333373 C715.149251,34.5121597 714.912822,34.3909822 714.713518,34.230715 C710.258482,30.659885 705.807354,27.089055 701.360135,23.5045437 C700.861874,23.1038759 700.412462,22.6406648 699.783286,22.0621395 C700.045117,18.4756737 701.233127,15.0416571 702.090917,11.5490062 C702.915489,8.18730531 703.433289,4.73178949 704.746352,1.46585796" id="Shape"></path>
            </g>
        </g>
    </g>
</svg>